<svg width="14" height="17" viewBox="0 0 14 17" fill="none" xmlns="http://www.w3.org/2000/svg">
<path d="M2.99498 6.83139L5.77475 0.428955H6.70732V2.24029L4.73458 6.83139H6.20517V6.00643C6.20517 5.80557 6.53993 5.79122 6.70732 5.80916V8.33785C6.24821 8.33785 6.18125 8.18242 6.20517 8.10471V7.38735H4.46557L0.161406 17H0L1.09397 13.6822C1.09397 13.6822 0.125538 13.3056 0.44835 12.4985C0.771162 11.6915 2.70803 7.38735 2.70803 7.38735H0.44835V6.83139H2.99498Z" fill="black"/>
<path d="M10.2403 6.83139L7.46055 0.428955H6.52798V2.24029L8.50072 6.83139H7.03013V6.00643C7.03013 5.80557 6.69536 5.79122 6.52798 5.80916V8.33785C6.98709 8.33785 7.05404 8.18242 7.03013 8.10471V7.38735H8.76973L13.0739 17H13.2353L12.1413 13.6822C12.1413 13.6822 13.1098 13.3056 12.7869 12.4985C12.4641 11.6915 10.5273 7.38735 10.5273 7.38735H12.7869V6.83139H10.2403Z" fill="black"/>
</svg>
